<svg width="12244" height="13515" viewBox="0 0 12244 13515" fill="none" xmlns="http://www.w3.org/2000/svg">
<path d="M9829 1271C11162.8 1271 12244 2352.23 12244 3686V11100C12244 12433.8 11162.8 13515 9829 13515H6121.5C6232.23 13515 6322 13425.2 6322 13314.5V7594H12043.5C12154.2 7594 12244 7504.23 12244 7393.5C12244 7282.77 12154.2 7193 12043.5 7193H6322V1471.5C6322 1360.77 6232.23 1271 6121.5 1271C6010.77 1271 5921 1360.77 5921 1471.5V7193H200.5C89.7669 7193 0 7282.77 0 7393.5C0 7504.23 89.7669 7594 200.5 7594H5921V13314.5C5921 13425.2 6010.77 13515 6121.5 13515H2415C1081.23 13515 0 12433.8 0 11100V3686C0 2352.23 1081.23 1271 2415 1271H9829Z" fill="white"/>
<rect x="4000.32" y="8864" width="649.288" height="3577" transform="rotate(45 4000.32 8864)" fill="#001EFF"/>
<path d="M2764.81 6040.79V2772.32H3591.16V6040.79H2764.81ZM1543.75 4819.73V3993.38H4812.22V4819.73H1543.75Z" fill="#001EFF"/>
<path d="M7436.99 10166.8V9347.35H10624.7V10166.8H7436.99ZM7436.99 11699.4V10880H10624.7V11699.4H7436.99Z" fill="#001EFF"/>
<rect x="7478" y="4133" width="3141" height="775" fill="#001EFF"/>
<ellipse cx="9048.5" cy="3260.5" rx="556.5" ry="491.5" fill="#001EFF"/>
<ellipse cx="9048.5" cy="5626.5" rx="556.5" ry="491.5" fill="#001EFF"/>
<rect x="1470.86" y="9323.45" width="649.288" height="3577" transform="rotate(-45 1470.86 9323.45)" fill="#001EFF"/>
</svg>
